<?xml version="1.0" encoding="UTF-8" standalone="no" ?>
<!DOCTYPE svg PUBLIC "-//W3C//DTD SVG 1.1//EN" "http://www.w3.org/Graphics/SVG/1.1/DTD/svg11.dtd">
<svg xmlns="http://www.w3.org/2000/svg" xmlns:xlink="http://www.w3.org/1999/xlink" version="1.1" width="500" height="500" viewBox="0 0 500 500" xml:space="preserve">
<desc>Created with Fabric.js 5.3.0</desc>
<defs>
</defs>
<g transform="matrix(1.2970104561 0 0 1.2970104561 250 250)" id="tQdlMpze2vPN4u1XPLBSn"  >
<g style="" vector-effect="non-scaling-stroke"   >
		<g transform="matrix(2.81 0 0 2.81 0 0)" id="_o4srym26uXKoiX6Dj0_U"  >
<path style="stroke: none; stroke-width: 1; stroke-dasharray: none; stroke-linecap: butt; stroke-dashoffset: 0; stroke-linejoin: miter; stroke-miterlimit: 10; fill: rgb(44,127,44); fill-rule: nonzero; opacity: 1;" vector-effect="non-scaling-stroke"  transform=" translate(-45.0000047838, -45.0001620843)" d="M 82.047 28.465 C 82.024 28.454 82 28.444 81.976 28.434 C 79.231 27.383000000000003 76.17 29.771 71.938 33.077 C 68.138 36.046 63.462 39.699 57.604 41.944 C 57.12 39.92 56.169 38.065000000000005 54.808 36.495000000000005 C 62.6 26.764000000000003 64.923 16.935000000000006 61.521 8.011000000000003 C 59.609 3.2340000000000027 54.044 0.24500000000000277 46.636 0.014000000000002899 C 39.79600000000001 -0.2049999999999971 31.197000000000003 2.195000000000003 28.435000000000002 8.025000000000002 C 27.383000000000003 10.773000000000003 29.772000000000002 13.831000000000003 33.078 18.062000000000005 C 36.042 21.856000000000005 39.690000000000005 26.525000000000006 41.93600000000001 32.374 C 39.906000000000006 32.856 38.04600000000001 33.809000000000005 36.47200000000001 35.174 C 26.74900000000001 27.399 16.928000000000008 25.08 8.01100000000001 28.48 C 3.2340000000000098 30.392 0.24500000000000988 35.956 0.014000000000010004 43.364000000000004 C -0.19899999999999 50.20100000000001 2.19500000000001 58.803000000000004 8.02500000000001 61.565000000000005 C 10.77100000000001 62.62200000000001 13.83100000000001 60.229000000000006 18.062000000000012 56.922000000000004 C 21.854000000000013 53.96 26.51800000000001 50.315000000000005 32.360000000000014 48.068000000000005 C 32.847000000000016 50.10000000000001 33.804000000000016 51.958000000000006 35.173000000000016 53.529 C 27.399000000000015 63.252 25.081000000000017 73.072 28.481000000000016 81.987 C 30.393000000000015 86.764 35.95600000000002 89.755 43.36400000000002 89.985 C 43.642 89.996 43.922 90 44.205 90 C 50.888999999999996 90 58.916 87.569 61.566 81.976 C 62.618 79.228 60.229 76.17 56.923 71.939 C 53.957 68.142 50.307 63.47099999999999 48.062 57.617999999999995 C 50.086999999999996 57.13099999999999 51.94 56.17699999999999 53.507999999999996 54.81099999999999 C 63.239 62.60099999999999 73.065 64.922 81.99 61.52199999999999 C 86.76599999999999 59.60999999999999 89.756 54.04499999999999 89.98599999999999 46.63699999999999 C 90.199 39.8 87.806 31.198 82.047 28.465 z" stroke-linecap="round" />
</g>
		<g transform="matrix(2.81 0 0 2.81 -0.0618334424 -0.006075457)" id="9ulBmFZZl4Q0D38Ao1uPD"  >
<path style="stroke: none; stroke-width: 1; stroke-dasharray: none; stroke-linecap: butt; stroke-dashoffset: 0; stroke-linejoin: miter; stroke-miterlimit: 4; fill: rgb(44,127,44); fill-rule: nonzero; opacity: 1;" vector-effect="non-scaling-stroke"  transform=" translate(-12.998, -12.998)" d="M 0 12.998 C 0 5.819399999999999 5.8194 0 12.998 0 C 20.1766 0 25.996 5.8194 25.996 12.998 C 25.996 20.1766 20.1766 25.996 12.998 25.996 C 5.819399999999999 25.996 0 20.1766 0 12.998 z" stroke-linecap="round" />
</g>
		<g transform="matrix(2.81 0 0 2.81 -0.0562134424 -0.000455457)" id="KQKGjqKCxXw3hwwihf1wB"  >
<path style="stroke: none; stroke-width: 1; stroke-dasharray: none; stroke-linecap: butt; stroke-dashoffset: 0; stroke-linejoin: miter; stroke-miterlimit: 4; fill: rgb(44,127,44); fill-rule: nonzero; opacity: 1;" vector-effect="non-scaling-stroke"  transform=" translate(-5, -5)" d="M 0 5 C 0 2.23858 2.23858 0 5 0 C 7.76142 0 10 2.23858 10 5 C 10 7.76142 7.76142 10 5 10 C 2.23858 10 0 7.76142 0 5 z" stroke-linecap="round" />
</g>
</g>
</g>
</svg>