<?xml version="1.0" encoding="UTF-8" standalone="no" ?>
<!DOCTYPE svg PUBLIC "-//W3C//DTD SVG 1.1//EN" "http://www.w3.org/Graphics/SVG/1.1/DTD/svg11.dtd">
<svg xmlns="http://www.w3.org/2000/svg" xmlns:xlink="http://www.w3.org/1999/xlink" version="1.1" width="500" height="500" viewBox="0 0 500 500" xml:space="preserve">
<desc>Created with Fabric.js 5.3.0</desc>
<defs>
</defs>
<g transform="matrix(1.3860482865 0 0 1.3860482865 250 250)" id="vp-F18Jk0eF__7RPTqZMS"  >
<g style="" vector-effect="non-scaling-stroke"   >
		<g transform="matrix(0.5613344079 0 0 0.5233556831 0 -31.5593944023)" id="5zvkL7ZyfyE2CGARuhAJU"  >
<path style="stroke: none; stroke-width: 1; stroke-dasharray: none; stroke-linecap: butt; stroke-dashoffset: 0; stroke-linejoin: miter; stroke-miterlimit: 4; fill: rgb(44,127,44); fill-rule: nonzero; opacity: 1;" vector-effect="non-scaling-stroke"  transform=" translate(-252, -191.6996540121)" d="M 496.156 240.515 L 442.687 155.03699999999998 C 435.497 143.54299999999998 423.478 136.355 410.098 135.36399999999998 C 408.178 128.96999999999997 403.274 120.50399999999998 393.963 119.16999999999997 L 335.81 2.221 C 334.826 0.242 332.425 -0.5640000000000001 330.448 0.42000000000000015 C 328.469 1.403 327.66299999999995 3.8040000000000003 328.647 5.782 L 385.451 120.018 C 378.357 122.626 374.42100000000005 129.68 372.726 135.234 L 270.667 135.234 C 268.823 129.193 264.327 121.376 255.99999999999997 119.43900000000001 L 255.99999999999997 4.001 C 255.99999999999997 1.7920000000000003 254.20899999999997 0.001000000000000334 251.99999999999997 0.001000000000000334 C 249.79099999999997 0.001000000000000334 247.99999999999997 1.7920000000000003 247.99999999999997 4.001 L 247.99999999999997 119.43900000000001 C 239.67199999999997 121.376 235.17699999999996 129.193 233.33299999999997 135.234 L 131.275 135.234 C 129.579 129.68 125.643 122.62700000000001 118.55000000000001 120.01800000000001 L 175.353 5.782 C 176.33700000000002 3.8040000000000003 175.531 1.4030000000000005 173.55200000000002 0.41999999999999993 C 171.57600000000002 -0.5640000000000001 169.17400000000004 0.24099999999999994 168.19000000000003 2.221 L 110.03700000000003 119.17 C 100.72500000000004 120.505 95.82200000000003 128.97 93.90200000000003 135.364 C 80.52200000000003 136.35500000000002 68.50300000000003 143.543 61.31300000000003 155.037 L 7.844 240.515 C 2.712 248.718 0 258.166 0 267.837 L 0 341.29499999999996 C 0 364.51099999999997 18.92 383.39899999999994 42.176 383.39899999999994 L 461.824 383.39899999999994 C 485.08000000000004 383.39899999999994 504 364.51099999999997 504 341.29499999999996 L 504 267.837 C 504 258.166 501.288 248.718 496.156 240.515 z M 391.385 126.984 C 391.388 126.984 391.39099999999996 126.985 391.395 126.985 C 391.397 126.985 391.399 126.984 391.4 126.984 C 396.99399999999997 126.98899999999999 400.02 131.533 401.55899999999997 135.23499999999999 L 381.22499999999997 135.23499999999999 C 382.764 131.533 385.79 126.987 391.385 126.984 z M 252 126.983 C 257.599 126.983 260.627 131.531 262.167 135.234 L 241.83299999999997 135.234 C 243.373 131.531 246.401 126.983 252 126.983 z M 112.6 126.984 C 112.60199999999999 126.984 112.604 126.985 112.60499999999999 126.985 C 112.60799999999999 126.985 112.612 126.984 112.615 126.984 C 118.211 126.988 121.237 131.535 122.776 135.23499999999999 L 102.45599999999999 135.23499999999999 C 104.004 131.538 107.039 126.988 112.6 126.984 z M 79.916 147.835 C 85.03399999999999 144.86700000000002 90.917 143.234 97.086 143.234 L 406.913 143.234 C 413.082 143.234 418.966 144.86700000000002 424.083 147.835 L 424.083 260.432 L 79.916 260.432 L 79.916 147.835 z M 8 341.295 L 8 267.837 C 8 259.668 10.292 251.68699999999998 14.626000000000001 244.756 L 71.916 154.264 L 71.916 263.284 L 12.526999999999994 358.225 C 9.653 353.232 8 347.454 8 341.295 z M 461.824 375.399 L 42.176 375.399 C 32.582 375.399 23.905 371.428 17.692 365.054 L 78.132 268.43199999999996 L 425.868 268.43199999999996 L 486.308 365.054 C 480.095 371.428 471.418 375.399 461.824 375.399 z M 496 341.295 C 496 347.45500000000004 494.347 353.233 491.473 358.225 L 432.084 263.284 L 432.084 154.264 L 489.374 244.75600000000003 C 493.708 251.68600000000004 496 259.66700000000003 496 267.83700000000005 L 496 341.295 z" stroke-linecap="round" />
</g>
		<g transform="matrix(0.5613344079 0 0 0.5233556831 -0.0001048611 35.7827941618)" id="AVKAsD2pIDIbNzdIUGmTJ"  >
<path style="stroke: none; stroke-width: 1; stroke-dasharray: none; stroke-linecap: butt; stroke-dashoffset: 0; stroke-linejoin: miter; stroke-miterlimit: 4; fill: rgb(44,127,44); fill-rule: nonzero; opacity: 1;" vector-effect="non-scaling-stroke"  transform=" translate(-251.9998131931, -320.3735)" d="M 419.871 279.591 C 419.15799999999996 278.348 417.834 277.582 416.402 277.582 L 87.599 277.582 C 86.166 277.582 84.843 278.348 84.13000000000001 279.591 L 39.59500000000001 357.173 C 38.88500000000001 358.411 38.887000000000015 359.933 39.603000000000016 361.169 C 40.31800000000002 362.404 41.637000000000015 363.16499999999996 43.064000000000014 363.16499999999996 L 460.93600000000004 363.16499999999996 C 462.36300000000006 363.16499999999996 463.68300000000005 362.40399999999994 464.39700000000005 361.169 C 465.112 359.93399999999997 465.11500000000007 358.411 464.40500000000003 357.173 L 419.871 279.591 z M 49.972 355.163 L 89.914 285.581 L 414.085 285.581 L 454.027 355.163 L 49.972 355.163 z" stroke-linecap="round" />
</g>
		<g transform="matrix(0.5613344079 0 0 0.5233556831 -86.979112543 35.316553062)" id="uQN9v0QE5ygfwWWjBu3iE"  >
<path style="stroke: none; stroke-width: 1; stroke-dasharray: none; stroke-linecap: butt; stroke-dashoffset: 0; stroke-linejoin: miter; stroke-miterlimit: 4; fill: rgb(44,127,44); fill-rule: nonzero; opacity: 1;" vector-effect="non-scaling-stroke"  transform=" translate(-97.0493835424, -319.4826314857)" d="M 108.593 300.505 C 106.706 299.358 104.245 299.956 103.09700000000001 301.844 L 84.167 332.964 C 83.019 334.851 83.618 337.312 85.506 338.46 C 86.155 338.85499999999996 86.872 339.043 87.581 339.043 C 88.931 339.043 90.24900000000001 338.359 91.00200000000001 337.121 L 109.93200000000002 306.001 C 111.08 304.114 110.48 301.653 108.593 300.505 z" stroke-linecap="round" />
</g>
		<g transform="matrix(0.5613344079 0 0 0.5233556831 -68.8799418574 35.3162260714)" id="OhQt89auaTCmG13QgFB0h"  >
<path style="stroke: none; stroke-width: 1; stroke-dasharray: none; stroke-linecap: butt; stroke-dashoffset: 0; stroke-linejoin: miter; stroke-miterlimit: 4; fill: rgb(44,127,44); fill-rule: nonzero; opacity: 1;" vector-effect="non-scaling-stroke"  transform=" translate(-129.2925, -319.4820066897)" d="M 138.572 300.322 C 136.584 299.359 134.191 300.19 133.228 302.178 L 118.15700000000001 333.298 C 117.19400000000002 335.286 118.025 337.679 120.013 338.642 C 120.575 338.914 121.16900000000001 339.043 121.754 339.043 C 123.239 339.043 124.66600000000001 338.212 125.357 336.786 L 140.428 305.666 C 141.391 303.678 140.56 301.285 138.572 300.322 z" stroke-linecap="round" />
</g>
		<g transform="matrix(0.5613344079 0 0 0.5233556831 -52.2387608071 35.3161636561)" id="bSGW2PG0zpFsTubnOFVwG"  >
<path style="stroke: none; stroke-width: 1; stroke-dasharray: none; stroke-linecap: butt; stroke-dashoffset: 0; stroke-linejoin: miter; stroke-miterlimit: 4; fill: rgb(44,127,44); fill-rule: nonzero; opacity: 1;" vector-effect="non-scaling-stroke"  transform=" translate(-158.9382527208, -319.4818874299)" d="M 165.503 300.134 C 163.41299999999998 299.42400000000004 161.14 300.545 160.42999999999998 302.637 L 149.86999999999998 333.757 C 149.16099999999997 335.849 150.28099999999998 338.12 152.373 338.83 C 152.79899999999998 338.97499999999997 153.232 339.043 153.659 339.043 C 155.326 339.043 156.881 337.993 157.447 336.327 L 168.007 305.207 C 168.715 303.116 167.595 300.844 165.503 300.134 z" stroke-linecap="round" />
</g>
		<g transform="matrix(0.5613344079 0 0 0.5233556831 -35.08238373 35.3162531037)" id="Lbln9NjIVMy8zr-jq06W9"  >
<path style="stroke: none; stroke-width: 1; stroke-dasharray: none; stroke-linecap: butt; stroke-dashoffset: 0; stroke-linejoin: miter; stroke-miterlimit: 4; fill: rgb(44,127,44); fill-rule: nonzero; opacity: 1;" vector-effect="non-scaling-stroke"  transform=" translate(-189.5018113333, -319.4820583416)" d="M 194.173 300.033 C 192.026 299.516 189.866 300.84000000000003 189.35 302.988 L 181.875 334.108 C 181.359 336.25600000000003 182.682 338.416 184.83 338.931 C 185.144 339.007 185.458 339.043 185.768 339.043 C 187.575 339.043 189.213 337.81 189.654 335.976 L 197.129 304.856 C 197.644 302.708 196.321 300.549 194.173 300.033 z" stroke-linecap="round" />
</g>
		<g transform="matrix(0.5613344079 0 0 0.5233556831 -17.0351001845 35.317082996)" id="DsdDeKVW2txWUCvti04bd"  >
<path style="stroke: none; stroke-width: 1; stroke-dasharray: none; stroke-linecap: butt; stroke-dashoffset: 0; stroke-linejoin: miter; stroke-miterlimit: 4; fill: rgb(44,127,44); fill-rule: nonzero; opacity: 1;" vector-effect="non-scaling-stroke"  transform=" translate(-221.6524924452, -319.4836440553)" d="M 223.998 299.951 C 221.804 299.694 219.813 301.25300000000004 219.54899999999998 303.446 L 215.81199999999998 334.56600000000003 C 215.54899999999998 336.759 217.11299999999997 338.75100000000003 219.307 339.01500000000004 C 219.469 339.03400000000005 219.63 339.04400000000004 219.789 339.04400000000004 C 221.785 339.04400000000004 223.512 337.552 223.756 335.521 L 227.493 304.401 C 227.756 302.206 226.191 300.214 223.998 299.951 z" stroke-linecap="round" />
</g>
		<g transform="matrix(0.5613344079 0 0 0.5233556831 86.9790471713 35.3164977993)" id="K5ifFFWl2i-sm6U_TRxDZ"  >
<path style="stroke: none; stroke-width: 1; stroke-dasharray: none; stroke-linecap: butt; stroke-dashoffset: 0; stroke-linejoin: miter; stroke-miterlimit: 4; fill: rgb(44,127,44); fill-rule: nonzero; opacity: 1;" vector-effect="non-scaling-stroke"  transform=" translate(-406.9505, -319.4825258927)" d="M 395.407 300.505 C 393.519 301.653 392.91999999999996 304.114 394.068 306.001 L 412.998 337.121 C 413.751 338.359 415.069 339.043 416.419 339.043 C 417.127 339.043 417.844 338.855 418.49399999999997 338.46 C 420.38199999999995 337.31199999999995 420.981 334.851 419.83299999999997 332.964 L 400.90299999999996 301.844 C 399.756 299.957 397.296 299.357 395.407 300.505 z" stroke-linecap="round" />
</g>
		<g transform="matrix(0.5613344079 0 0 0.5233556831 68.8799418574 35.3167494271)" id="9H2AWzj1F22T9lT1RwB2q"  >
<path style="stroke: none; stroke-width: 1; stroke-dasharray: none; stroke-linecap: butt; stroke-dashoffset: 0; stroke-linejoin: miter; stroke-miterlimit: 4; fill: rgb(44,127,44); fill-rule: nonzero; opacity: 1;" vector-effect="non-scaling-stroke"  transform=" translate(-374.7075, -319.4830066897)" d="M 370.772 302.179 C 369.80899999999997 300.191 367.418 299.35999999999996 365.428 300.323 C 363.44 301.286 362.609 303.678 363.572 305.667 L 378.64300000000003 336.787 C 379.334 338.21299999999997 380.761 339.044 382.24600000000004 339.044 C 382.831 339.044 383.425 338.91499999999996 383.987 338.643 C 385.975 337.67999999999995 386.80600000000004 335.28799999999995 385.843 333.299 L 370.772 302.179 z" stroke-linecap="round" />
</g>
		<g transform="matrix(0.5613344079 0 0 0.5233556831 52.2391833352 35.3160622654)" id="UKaFmPGjKNbp2qgWOuyGc"  >
<path style="stroke: none; stroke-width: 1; stroke-dasharray: none; stroke-linecap: butt; stroke-dashoffset: 0; stroke-linejoin: miter; stroke-miterlimit: 4; fill: rgb(44,127,44); fill-rule: nonzero; opacity: 1;" vector-effect="non-scaling-stroke"  transform=" translate(-345.0625, -319.481693698)" d="M 343.57 302.637 C 342.86 300.545 340.58799999999997 299.423 338.497 300.134 C 336.40500000000003 300.844 335.285 303.115 335.994 305.207 L 346.55400000000003 336.327 C 347.119 337.993 348.675 339.043 350.34200000000004 339.043 C 350.76800000000003 339.043 351.20200000000006 338.975 351.62800000000004 338.83 C 353.72 338.12 354.84000000000003 335.849 354.13100000000003 333.757 L 343.57 302.637 z" stroke-linecap="round" />
</g>
		<g transform="matrix(0.5613344079 0 0 0.5233556831 35.0828391593 35.3162387485)" id="E1GcMA58rq3DUi6_GiwhC"  >
<path style="stroke: none; stroke-width: 1; stroke-dasharray: none; stroke-linecap: butt; stroke-dashoffset: 0; stroke-linejoin: miter; stroke-miterlimit: 4; fill: rgb(44,127,44); fill-rule: nonzero; opacity: 1;" vector-effect="non-scaling-stroke"  transform=" translate(-314.499, -319.4820309124)" d="M 314.65 302.988 C 314.13399999999996 300.839 311.96799999999996 299.516 309.827 300.033 C 307.679 300.54900000000004 306.356 302.708 306.872 304.856 L 314.34700000000004 335.976 C 314.78700000000003 337.81 316.42600000000004 339.043 318.23300000000006 339.043 C 318.54300000000006 339.043 318.8570000000001 339.007 319.17100000000005 338.931 C 321.3190000000001 338.41499999999996 322.64200000000005 336.256 322.12600000000003 334.108 L 314.65 302.988 z" stroke-linecap="round" />
</g>
		<g transform="matrix(0.5613344079 0 0 0.5233556831 17.0350959437 35.3164480129)" id="sZ8Ft1SP1ao0qoX0ZJmpp"  >
<path style="stroke: none; stroke-width: 1; stroke-dasharray: none; stroke-linecap: butt; stroke-dashoffset: 0; stroke-linejoin: miter; stroke-miterlimit: 4; fill: rgb(44,127,44); fill-rule: nonzero; opacity: 1;" vector-effect="non-scaling-stroke"  transform=" translate(-282.3475, -319.4824307635)" d="M 284.451 303.445 C 284.187 301.253 282.204 299.69599999999997 280.002 299.95 C 277.809 300.214 276.244 302.205 276.507 304.399 L 280.244 335.519 C 280.48800000000006 337.55 282.21400000000006 339.04200000000003 284.211 339.04200000000003 C 284.37 339.04200000000003 284.531 339.03200000000004 284.69300000000004 339.01300000000003 C 286.886 338.749 288.451 336.75800000000004 288.18800000000005 334.564 L 284.451 303.445 z" stroke-linecap="round" />
</g>
		<g transform="matrix(0.5613344079 0 0 0.5233556831 0 35.3162225703)" id="x0YK0K7WoQW_IUF3RT1dg"  >
<path style="stroke: none; stroke-width: 1; stroke-dasharray: none; stroke-linecap: butt; stroke-dashoffset: 0; stroke-linejoin: miter; stroke-miterlimit: 4; fill: rgb(44,127,44); fill-rule: nonzero; opacity: 1;" vector-effect="non-scaling-stroke"  transform=" translate(-252, -319.482)" d="M 252 299.922 C 249.791 299.922 248 301.713 248 303.922 L 248 335.04200000000003 C 248 337.25100000000003 249.791 339.04200000000003 252 339.04200000000003 C 254.209 339.04200000000003 256 337.25100000000003 256 335.04200000000003 L 256 303.922 C 256 301.713 254.209 299.922 252 299.922 z" stroke-linecap="round" />
</g>
		<g transform="matrix(0.5613344079 0 0 0.5233556831 -124.6524446231 95.1622440377)" id="3KVSfL0zAUHfR2wNfY4Xw"  >
<path style="stroke: none; stroke-width: 1; stroke-dasharray: none; stroke-linecap: butt; stroke-dashoffset: 0; stroke-linejoin: miter; stroke-miterlimit: 4; fill: rgb(44,127,44); fill-rule: nonzero; opacity: 1;" vector-effect="non-scaling-stroke"  transform=" translate(-29.9355, -433.8325715135)" d="M 48.998 396.544 C 47.031 395.537 44.620999999999995 396.318 43.616 398.28499999999997 L 9.132 465.74 C 8.126 467.707 8.905999999999999 470.117 10.873 471.122 C 11.456 471.42 12.078 471.56100000000004 12.69 471.56100000000004 C 14.145 471.56100000000004 15.547 470.76500000000004 16.255 469.38100000000003 L 50.739000000000004 401.925 C 51.745 399.959 50.965 397.549 48.998 396.544 z" stroke-linecap="round" />
</g>
		<g transform="matrix(0.5613344079 0 0 0.5233556831 -64.0074499664 107.020516718)" id="WdxYJDd5Hts4BsY5eg-hL"  >
<path style="stroke: none; stroke-width: 1; stroke-dasharray: none; stroke-linecap: butt; stroke-dashoffset: 0; stroke-linejoin: miter; stroke-miterlimit: 4; fill: rgb(44,127,44); fill-rule: nonzero; opacity: 1;" vector-effect="non-scaling-stroke"  transform=" translate(-137.9726945907, -456.4907236331)" d="M 149.773 409.098 C 147.631 408.564 145.459 409.869 144.92499999999998 412.01300000000003 L 123.25799999999998 499.035 C 122.72399999999998 501.17900000000003 124.02899999999998 503.34900000000005 126.17299999999999 503.88300000000004 C 126.49699999999999 503.96400000000006 126.82199999999999 504.00300000000004 127.14199999999998 504.00300000000004 C 128.93599999999998 504.00300000000004 130.56799999999998 502.78800000000007 131.01999999999998 500.968 L 152.68699999999998 413.946 C 153.222 411.802 151.917 409.631 149.773 409.098 z" stroke-linecap="round" />
</g>
		<g transform="matrix(0.5613344079 0 0 0.5233556831 124.6524446231 95.1626209049)" id="8oXJizqa6xfDfYWOb_lK1"  >
<path style="stroke: none; stroke-width: 1; stroke-dasharray: none; stroke-linecap: butt; stroke-dashoffset: 0; stroke-linejoin: miter; stroke-miterlimit: 4; fill: rgb(44,127,44); fill-rule: nonzero; opacity: 1;" vector-effect="non-scaling-stroke"  transform=" translate(-474.0645, -433.8332916113)" d="M 460.384 398.285 C 459.37800000000004 396.31800000000004 456.969 395.538 455.002 396.54400000000004 C 453.035 397.54900000000004 452.255 399.95900000000006 453.261 401.92600000000004 L 487.745 469.38200000000006 C 488.45300000000003 470.7660000000001 489.855 471.56200000000007 491.31 471.56200000000007 C 491.922 471.56200000000007 492.544 471.4200000000001 493.127 471.12300000000005 C 495.094 470.11800000000005 495.874 467.708 494.868 465.74100000000004 L 460.384 398.285 z" stroke-linecap="round" />
</g>
		<g transform="matrix(0.5613344079 0 0 0.5233556831 64.0069978624 107.0204310958)" id="SUo7e8ICl6yHVRlWECMB4"  >
<path style="stroke: none; stroke-width: 1; stroke-dasharray: none; stroke-linecap: butt; stroke-dashoffset: 0; stroke-linejoin: miter; stroke-miterlimit: 4; fill: rgb(44,127,44); fill-rule: nonzero; opacity: 1;" vector-effect="non-scaling-stroke"  transform=" translate(-366.0265, -456.4905600308)" d="M 359.075 412.013 C 358.541 409.86899999999997 356.371 408.563 354.227 409.09799999999996 C 352.08299999999997 409.63199999999995 350.77799999999996 411.80199999999996 351.31199999999995 413.94599999999997 L 372.9789999999999 500.96799999999996 C 373.4319999999999 502.787 375.06299999999993 504.003 376.8569999999999 504.003 C 377.1769999999999 504.003 377.5019999999999 503.964 377.8259999999999 503.883 C 379.9699999999999 503.349 381.2749999999999 501.179 380.74099999999993 499.03499999999997 L 359.075 412.013 z" stroke-linecap="round" />
</g>
		<g transform="matrix(0.5613344079 0 0 0.5233556831 0 107.0201380005)" id="Fbt6JoybM4R0k3V7IhFjf"  >
<path style="stroke: none; stroke-width: 1; stroke-dasharray: none; stroke-linecap: butt; stroke-dashoffset: 0; stroke-linejoin: miter; stroke-miterlimit: 4; fill: rgb(44,127,44); fill-rule: nonzero; opacity: 1;" vector-effect="non-scaling-stroke"  transform=" translate(-252, -456.49)" d="M 252 408.979 C 249.791 408.979 248 410.77 248 412.979 L 248 500.001 C 248 502.21 249.791 504.001 252 504.001 C 254.209 504.001 256 502.21 256 500.001 L 256 412.979 C 256 410.77 254.209 408.979 252 408.979 z" stroke-linecap="round" />
</g>
</g>
</g>
</svg>