<?xml version="1.0" encoding="UTF-8" standalone="no" ?>
<!DOCTYPE svg PUBLIC "-//W3C//DTD SVG 1.1//EN" "http://www.w3.org/Graphics/SVG/1.1/DTD/svg11.dtd">
<svg xmlns="http://www.w3.org/2000/svg" xmlns:xlink="http://www.w3.org/1999/xlink" version="1.1" width="500" height="500" viewBox="0 0 500 500" xml:space="preserve">
<desc>Created with Fabric.js 5.3.0</desc>
<defs>
</defs>
<g transform="matrix(27.0765249781 0 0 -27.0765249781 250 250)" id="nhsm3F9udQA8cMbtYJFCt"  >
<path style="stroke: none; stroke-width: 0.529167; stroke-dasharray: none; stroke-linecap: round; stroke-dashoffset: 0; stroke-linejoin: miter; stroke-miterlimit: 4; fill: rgb(44,127,44); fill-rule: nonzero; opacity: 1;" vector-effect="non-scaling-stroke"  transform=" translate(-8.46692545, -8.4664075351)" d="M 1.5880168 1.5869831 C 1.517486553503908 1.586707048568731 1.4497653459078146 1.6146029507650497 1.3998925483364322 1.6644757483364323 C 1.3500197507650495 1.7143485459078147 1.3221238485687308 1.782069753503908 1.3223999 1.8526 C 1.3226734850501334 1.922772031931609 1.350811869283193 1.9899612593863842 1.4006248161217014 2.0393865488792575 C 1.45043776296021 2.088811838372131 1.5178447722097865 2.116424445225602 1.5880167999999997 2.1161498 L 3.7925334 2.1161498 L 5.0276002 5.0839274 L 5.0276002 5.82135 C 5.02818110983406 5.966663289684152 5.145836810315848 6.08431899016594 5.2911501 6.0848999 L 7.4083335 6.0848999 L 7.4083335 7.4093668 L 6.0859336 7.4093668 C 5.939813783726429 7.408809587030313 5.8209010157536705 7.526796989593718 5.8203167 7.6729167 L 5.8203167 7.9385335 C 5.8203167 9.3997476 7.0054527 10.582817 8.4666669 10.582817 C 9.927881 10.582817 11.113534 9.399747600000001 11.113534 7.9385335 L 11.113534 7.6729167 C 11.113253696617592 7.6026568127478615 11.085042029462816 7.535392956660315 11.035118610118165 7.485954282248399 C 10.985195190773513 7.436515607836483 10.917659277792765 7.408961570795155 10.8474 7.4093668 L 9.525517 7.4093668 L 9.525517 6.0848999 L 11.6427 6.0848999 C 11.78801332873645 6.084319044928093 11.905669089791171 5.966663328516043 11.90625 5.82135 L 11.90625 5.082894 L 13.141317 2.1161497999999996 L 15.345834 2.1161497999999996 C 15.416006045080072 2.116424471815191 15.483413080033467 2.08881187671696 15.533226048522783 2.0393865843495083 C 15.5830390170121 1.9899612919820562 15.61117741498586 1.9227720493256806 15.611451 1.8526 C 15.611727051603719 1.7820697361033413 15.583831135711264 1.714348513214969 15.533958316447334 1.6644757127272531 C 15.484085497183402 1.6146029122395373 15.416364263792726 1.5867070218429078 15.345834 1.5869831 L 12.9651 1.5869831 L 3.9687501 1.5869831 Z M 4.3651084 2.1161498 L 12.568225 2.1161498 L 11.464933 4.7624999 L 5.468917 4.7624999 Z M 5.5567669 5.2921833 L 11.377084 5.2921833 L 11.377084 5.5557332 L 5.5567669 5.5557332 Z M 7.9375002 6.0848999 L 8.9963503 6.0848999 L 8.9963503 7.4093668 L 7.9375002 7.4093668 Z M 6.3494834 7.9385335 L 10.58385 7.9385335 C 10.58385 9.1157425 9.6438757 10.053650000000001 8.4666669 10.053650000000001 C 7.2894578 10.053650000000001 6.3494834 9.115742500000001 6.3494834 7.938533500000001 z M 7.7183921 8.1803793 C 7.648220206547329 8.18037931856513 7.580922380289201 8.208255003861778 7.531303382959864 8.257874019944754 C 7.481684385630526 8.307493036027731 7.453808749608819 8.374790848981995 7.4538088 8.4449627 C 7.453808776130498 8.515134533691906 7.481684423860496 8.58243232095583 7.531303418315244 8.63205131541058 C 7.5809224127699935 8.681670309865329 7.648220223873451 8.709545981434859 7.7183921 8.709546 C 7.7885639934526525 8.709546007956495 7.8558618302464485 8.681670348095233 7.9054808463294215 8.632051350765899 C 7.9550998624123945 8.582432353436566 7.982975523869507 8.515134551017997 7.9829755 8.4449627 C 7.982975550391191 8.374790831655904 7.955099900642372 8.307493003546991 7.905480881684809 8.257873984589429 C 7.855861862727244 8.208254965631864 7.788564010778774 8.180379292043488 7.7183921 8.1803793 Z M 6.8791668 8.2020834 C 6.808994923873451 8.20208341856514 6.741697112769994 8.22995909013467 6.692078118315244 8.279578084589419 C 6.642459123860496 8.32919707904417 6.614583476130498 8.396494866308092 6.6145835 8.4666667 C 6.614583476130498 8.536838533691906 6.642459123860496 8.60413632095583 6.692078118315244 8.65375531541058 C 6.741697112769994 8.703374309865328 6.808994923873451 8.731249981434859 6.8791668 8.73125 C 6.949338693452653 8.731250007956495 7.016636530246449 8.703374348095233 7.066255546329422 8.653755350765898 C 7.115874562412395 8.604136353436566 7.143750223869507 8.536838551017997 7.1437502 8.4666667 C 7.143750223869507 8.396494848982002 7.115874562412395 8.329197046563433 7.066255546329422 8.2795780492341 C 7.016636530246448 8.229959051904766 6.949338693452652 8.202083392043503 6.8791668 8.2020834 Z M 8.4666669 8.2020834 C 8.396495006547347 8.202083392043503 8.329197169753552 8.229959051904766 8.27957815367058 8.2795780492341 C 8.229959137587606 8.329197046563435 8.202083476130495 8.396494848982002 8.2020835 8.4666667 C 8.202083476130495 8.536838551017997 8.229959137587606 8.604136353436564 8.27957815367058 8.653755350765898 C 8.329197169753552 8.703374348095233 8.396495006547347 8.731250007956495 8.4666669 8.73125 C 8.53683877612655 8.731249981434859 8.604136587230007 8.703374309865328 8.653755581684756 8.65375531541058 C 8.703374576139504 8.60413632095583 8.731250223869502 8.536838533691906 8.7312502 8.4666667 C 8.731250223869502 8.396494866308092 8.703374576139504 8.32919707904417 8.653755581684756 8.279578084589419 C 8.604136587230007 8.22995909013467 8.53683877612655 8.20208341856514 8.4666669 8.2020834 Z M 9.2604169 8.2020834 C 9.19024502387345 8.20208341856514 9.122947212769992 8.22995909013467 9.073328218315243 8.279578084589419 C 9.023709223860495 8.32919707904417 8.995833576130497 8.396494866308092 8.9958336 8.4666667 C 8.995833576130497 8.536838533691906 9.023709223860495 8.60413632095583 9.073328218315243 8.65375531541058 C 9.122947212769992 8.703374309865328 9.19024502387345 8.731249981434859 9.2604169 8.73125 C 9.330588776126548 8.731249981434859 9.397886587230007 8.703374309865328 9.447505581684755 8.65375531541058 C 9.497124576139504 8.60413632095583 9.525000223869501 8.536838533691906 9.5250002 8.4666667 C 9.525000223869501 8.396494866308092 9.497124576139504 8.32919707904417 9.447505581684755 8.279578084589419 C 9.397886587230007 8.22995909013467 9.330588776126548 8.20208341856514 9.2604169 8.2020834 Z M 10.054167 8.2020834 C 9.983995106547347 8.202083392043503 9.916697269753552 8.229959051904766 9.867078253670579 8.2795780492341 C 9.817459237587606 8.329197046563435 9.789583576130495 8.396494848982002 9.7895836 8.4666667 C 9.789583576130495 8.536838551017997 9.817459237587606 8.604136353436564 9.867078253670579 8.653755350765898 C 9.916697269753552 8.703374348095233 9.983995106547347 8.731250007956495 10.054167 8.73125 C 10.200292250963034 8.731249795654927 10.318750049705763 8.612791862597673 10.31875 8.4666667 C 10.318750049705763 8.320541537402324 10.200292250963033 8.202083604345072 10.054167 8.2020834 Z M 7.6729169 8.995833399999999 C 7.602745006547347 8.995833392043503 7.535447169753551 9.023709051904765 7.485828153670578 9.0733280492341 C 7.436209137587605 9.122947046563434 7.408333476130494 9.190244848982003 7.4083335 9.2604167 C 7.40833344960881 9.330588568344096 7.436209099357628 9.397886396453009 7.485828118315192 9.447505415410571 C 7.535447137272755 9.497124434368136 7.602744989221225 9.525000107956512 7.6729169 9.5250001 C 7.743088793452671 9.52500008143487 7.8103866197107985 9.497124396138222 7.860005617040136 9.447505380055246 C 7.9096246143694735 9.397886363972269 7.937500250391181 9.330588551018005 7.9375002 9.2604167 C 7.937500223869502 9.190244866308094 7.909624576139504 9.12294707904417 7.860005581684756 9.07332808458942 C 7.810386587230006 9.023709090134671 7.743088776126549 8.995833418565141 7.6729169 8.9958334 Z M 8.4666669 8.995833399999999 C 8.396495006547347 8.995833392043503 8.329197169753552 9.023709051904765 8.279578153670577 9.0733280492341 C 8.229959137587604 9.122947046563434 8.202083476130493 9.190244848982003 8.2020835 9.2604167 C 8.202083449608809 9.330588568344096 8.229959099357629 9.397886396453009 8.279578118315191 9.447505415410571 C 8.329197137272756 9.497124434368136 8.396494989221226 9.525000107956512 8.4666669 9.5250001 C 8.53683879345267 9.52500008143487 8.604136619710799 9.497124396138222 8.653755617040137 9.447505380055246 C 8.703374614369473 9.397886363972269 8.73125025039118 9.330588551018005 8.7312502 9.2604167 C 8.731250223869502 9.190244866308094 8.703374576139504 9.12294707904417 8.653755581684756 9.07332808458942 C 8.604136587230007 9.023709090134671 8.53683877612655 8.995833418565141 8.4666669 8.9958334 Z M 9.2604169 8.995833399999999 C 9.19024502387345 8.99583341856514 9.122947212769992 9.02370909013467 9.073328218315243 9.07332808458942 C 9.023709223860493 9.122947079044168 8.995833576130497 9.190244866308094 8.9958336 9.2604167 C 8.995833549608818 9.330588551018005 9.023709185630526 9.397886363972269 9.073328182959862 9.447505380055246 C 9.1229471802892 9.497124396138222 9.190245006547329 9.52500008143487 9.2604169 9.5250001 C 9.33058879345267 9.52500008143487 9.397886619710798 9.497124396138222 9.447505617040136 9.447505380055246 C 9.497124614369472 9.397886363972269 9.52500025039118 9.330588551018005 9.5250002 9.2604167 C 9.525000223869501 9.190244866308094 9.497124576139504 9.12294707904417 9.447505581684755 9.07332808458942 C 9.397886587230007 9.023709090134671 9.330588776126548 8.995833418565141 9.2604169 8.9958334 Z M 5.3040691 9.244397 C 5.084365 9.2439456 4.8379842 9.2584427 4.7325279 9.3193278 C 4.5216142 9.4410991 4.4495263 9.7109614 4.5712974 9.9218751 C 4.6930684 10.132789 4.9629307 10.204876 5.1738447 10.083106 C 5.384757 9.961335 5.7169639 9.2604167 5.7169639 9.2604167 C 5.7169636 9.2604162 5.523773299999999 9.2448487 5.3040690999999995 9.244396700000001 z M 11.629265 9.244397 C 11.40956 9.244848399999999 11.21637 9.260416999999999 11.21637 9.260416999999999 C 11.21637 9.260417799999999 11.548575999999999 9.9613351 11.759489 10.083105999999999 C 11.970402 10.204875999999999 12.240265 10.132786 12.362036 9.9218754 C 12.483807 9.710961399999999 12.411716 9.441099399999999 12.200806 9.3193281 C 12.09535 9.2584431 11.848969 9.2439461 11.629265 9.2443971 z M 3.9289591 10.038146999999999 C 3.7092552000000003 10.037695999999999 3.4633912000000002 10.052196999999998 3.3579346 10.113076999999999 C 3.1470212 10.234848 3.0749331 10.50471 3.1967041000000003 10.715623999999998 C 3.3184752000000004 10.926536999999998 3.5878210000000004 10.998625999999998 3.7987347000000002 10.876854999999999 C 4.0096473 10.755083999999998 4.342370600000001 10.054165999999999 4.342370600000001 10.054165999999999 C 4.342370600000001 10.054165 4.148663300000001 10.038595999999998 3.9289591000000006 10.038146 z M 13.004375 10.038146999999999 C 12.78467 10.038597999999999 12.590963 10.054166999999998 12.590963 10.054166999999998 C 12.590963 10.054167999999997 12.923686 10.755084999999998 13.134599 10.876855999999998 C 13.345513 10.998626999999999 13.614859 10.926535999999999 13.73663 10.715624999999998 C 13.858401 10.504710999999997 13.78631 10.234848999999997 13.575398999999999 10.113077999999998 C 13.469942999999999 10.052197999999999 13.224079 10.037697999999999 13.004375 10.038147999999998 z M 6.8791668 10.42262 C 6.879166000000001 10.422619000000001 6.1782488 10.754827 6.056478 10.965739000000001 C 5.9347072 11.176653000000002 6.006795 11.446515000000002 6.2177085000000005 11.568286 C 6.4286222 11.690058 6.6984845 11.617966000000001 6.820255800000001 11.407056 C 6.942026000000001 11.196143000000001 6.879166800000001 10.42262 6.879166800000001 10.42262 z M 10.054167 10.42262 C 10.054167 10.42262 9.991306999999999 11.196143 10.113076999999999 11.407056 C 10.234848 11.617972 10.50471 11.690058 10.715623999999998 11.568286 C 10.926540999999999 11.446515 10.998625999999998 11.176653 10.876854999999999 10.965739000000001 C 10.755085 10.754827 10.054165999999999 10.42262 10.054165999999999 10.42262 z M 2.5543660999999993 10.831897 C 2.3346619999999993 10.831446 2.0887978999999994 10.845946999999999 1.9833414999999994 10.906827 C 1.7724277999999993 11.028599 1.6998231999999995 11.29846 1.8215942999999994 11.509374 C 1.9433653999999994 11.720291 2.2132277999999994 11.792375999999999 2.4241414999999993 11.670605 C 2.635054099999999 11.548834 2.9672608999999994 10.847916 2.9672608999999994 10.847916 C 2.9672605999999995 10.847916 2.7740702999999995 10.832346 2.5543660999999993 10.831896 z M 14.378967999999999 10.831897 C 14.159263 10.832348 13.966072999999998 10.847916999999999 13.966072999999998 10.847916999999999 C 13.966071999999999 10.847917999999998 14.298279999999998 11.548834999999999 14.509191999999999 11.670606 C 14.720106 11.792377 14.989968999999999 11.720286 15.111738999999998 11.509374999999999 C 15.233509999999999 11.298460999999998 15.160908999999998 11.028599999999999 14.949991999999998 10.906827999999999 C 14.844535999999998 10.845937999999999 14.598671999999999 10.831447999999998 14.378967999999999 10.831897999999999 z M 8.4666669 10.847916999999999 C 8.4666661 10.847916999999999 8.0258671 11.486491999999998 8.0258668 11.730032999999999 C 8.0258671 11.973574999999999 8.223124799999999 12.170832999999998 8.4666669 12.170832999999998 C 8.710209 12.170832999999998 8.9074667 11.973574999999999 8.907467 11.730032999999999 C 8.9074667 11.486491999999998 8.4666669 10.847916999999999 8.4666669 10.847916999999999 z M 6.0854168 11.797213 C 6.085416 11.797213 5.3844988 12.129935999999999 5.262728 12.340848999999999 C 5.1409572 12.551761999999998 5.213045 12.821107999999999 5.4239585 12.942878999999998 C 5.6348721 13.064649999999999 5.904734400000001 12.992558999999998 6.026505800000001 12.781648999999998 C 6.148276000000001 12.570735999999998 6.085416800000001 11.797212999999998 6.085416800000001 11.797212999999998 z M 10.847916999999999 11.797213 C 10.847916999999999 11.797213 10.785056999999998 12.570736 10.906826999999998 12.781649 C 11.028597999999999 12.992566 11.298459999999999 13.06465 11.509373999999998 12.942879 C 11.720290999999998 12.821107999999999 11.792375999999997 12.551762 11.670604999999998 12.340849 C 11.548834999999999 12.129936 10.847915999999998 11.797213000000001 10.847915999999998 11.797213000000001 z M 8.4666669 12.435417 C 8.4666661 12.435417 8.0258671 13.073991999999999 8.0258668 13.317533 C 8.0258671 13.561076 8.223124799999999 13.758332999999999 8.4666669 13.758332999999999 C 8.710209 13.758332999999999 8.9074667 13.561075999999998 8.907467 13.317533 C 8.9074667 13.073991999999999 8.4666669 12.435417 8.4666669 12.435417 z M 5.2916668 13.172322999999999 C 5.291666 13.172322999999999 4.5907488 13.504528999999998 4.468978 13.715442 C 4.3472072 13.926356 4.419295 14.196218 4.6302084 14.317988999999999 C 4.8411221 14.43976 5.1109843999999995 14.367159 5.2327557 14.156241999999999 C 5.354526 13.945329999999998 5.2916667 13.172322999999999 5.2916667 13.172322999999999 z M 11.641667 13.172322999999999 C 11.641667 13.172323999999998 11.578807 13.945329999999998 11.700577 14.156241999999999 C 11.822348 14.367159 12.09221 14.43976 12.303123999999999 14.317988999999999 C 12.514040999999999 14.196217999999998 12.586125999999998 13.926355999999998 12.464355 13.715442 C 12.342585 13.504529 11.641665999999999 13.172322999999999 11.641665999999999 13.172322999999999 z M 8.4666669 14.022916999999998 C 8.4666661 14.022916999999998 8.0258671 14.661491999999997 8.0258668 14.905032999999998 C 8.0258671 15.148575999999998 8.223124799999999 15.345833999999998 8.4666669 15.345833999999998 C 8.710209 15.345833999999998 8.9074667 15.148575999999998 8.907467 14.905032999999998 C 8.9074667 14.661491999999997 8.4666669 14.022916999999998 8.4666669 14.022916999999998 z" stroke-linecap="round" />
</g>
</svg>