<?xml version="1.0" encoding="UTF-8" standalone="no" ?>
<!DOCTYPE svg PUBLIC "-//W3C//DTD SVG 1.1//EN" "http://www.w3.org/Graphics/SVG/1.1/DTD/svg11.dtd">
<svg xmlns="http://www.w3.org/2000/svg" xmlns:xlink="http://www.w3.org/1999/xlink" version="1.1" width="500" height="500" viewBox="0 0 500 500" xml:space="preserve">
<desc>Created with Fabric.js 5.3.0</desc>
<defs>
</defs>
<g transform="matrix(3.9733108739 0 0 3.9733108739 250 250)" id="VrVHwh3Rlq-ZtBZ3npORB"  >
<path style="stroke: none; stroke-width: 1; stroke-dasharray: none; stroke-linecap: butt; stroke-dashoffset: 0; stroke-linejoin: miter; stroke-miterlimit: 4; fill: rgb(44,127,44); fill-rule: nonzero; opacity: 1;" vector-effect="non-scaling-stroke"  transform=" translate(-49.9973284939, -50.005)" d="M 94.13 22.44 L 72.76 22.44 L 72.76 13.900000000000002 C 72.76 13.310000000000002 72.28 12.830000000000002 71.69000000000001 12.830000000000002 L 68.06000000000002 12.830000000000002 C 67.52 7.05 62.64 2.5 56.71 2.5 L 27.39 2.5 C 21.1 2.5 15.98 7.62 15.98 13.91 L 15.98 19.54 L 15.030000000000001 19.54 C 11.350000000000001 19.54 8.360000000000001 22.53 8.360000000000001 26.21 L 8.360000000000001 37.19 C 8.360000000000001 37.78 8.840000000000002 38.26 9.430000000000001 38.26 L 11.520000000000001 38.26 L 11.520000000000001 53.37 L 1.07 53.37 C 0.6300000000000001 53.37 0.2400000000000001 53.64 0.08000000000000007 54.04 C -0.07999999999999993 54.44 0.020000000000000073 54.91 0.33000000000000007 55.21 L 3.6 58.32 L 3.6 96.44 C 3.6 97.03 4.08 97.50999999999999 4.67 97.50999999999999 L 34.85 97.50999999999999 C 35.440000000000005 97.50999999999999 35.92 97.02999999999999 35.92 96.44 L 35.92 57.7 L 36.68 56.440000000000005 C 37.05 55.82000000000001 37.07 55.080000000000005 36.71 54.45 C 36.33 53.78 35.59 53.36 34.78 53.36 L 22.580000000000002 53.36 L 22.580000000000002 38.25 L 24.67 38.25 C 25.26 38.25 25.740000000000002 37.77 25.740000000000002 37.18 L 25.740000000000002 26.2 C 25.740000000000002 22.52 22.75 19.53 19.07 19.53 L 18.12 19.53 L 18.12 13.900000000000002 C 18.12 8.780000000000001 22.28 4.620000000000003 27.4 4.620000000000003 L 56.72 4.620000000000003 C 61.48 4.620000000000003 65.4 8.220000000000002 65.93 12.830000000000004 L 62.4 12.830000000000004 C 61.809999999999995 12.830000000000004 61.33 13.310000000000004 61.33 13.900000000000004 L 61.33 22.440000000000005 L 56.589999999999996 22.440000000000005 C 53.349999999999994 22.440000000000005 50.72 25.070000000000004 50.72 28.310000000000006 L 50.72 93.17 C 50.72 95.56 52.66 97.5 55.05 97.5 L 95.66 97.5 C 98.05 97.5 99.99 95.56 99.99 93.17 L 99.99 28.32 C 100 25.08 97.37 22.44 94.13 22.44 z M 11.51 55.5 L 11.51 66.85 C 9 66.66 7.03 67.28 5.73 67.91 L 5.73 57.86 C 5.73 57.57 5.61 57.29 5.4 57.089999999999996 L 3.73 55.5 L 11.51 55.5 z M 20.44 70.78 L 18.11 70.78 L 18.11 55.5 L 20.439999999999998 55.5 L 20.439999999999998 70.78 z M 15.97 70.78 L 13.64 70.78 L 13.64 55.5 L 15.97 55.5 L 15.97 70.78 z M 5.73 95.37 L 5.73 70.35 C 6.5200000000000005 69.82 8.55 68.72 11.510000000000002 68.99 L 11.510000000000002 71.85 C 11.510000000000002 72.44 11.990000000000002 72.91999999999999 12.580000000000002 72.91999999999999 L 19.840000000000003 72.91999999999999 C 20.400000000000002 73.37999999999998 20.950000000000003 73.88999999999999 21.510000000000005 74.42999999999999 C 24.650000000000006 77.49999999999999 28.770000000000003 79.27999999999999 33.78 79.75 L 33.78 95.38 L 5.73 95.38 z M 34.75 55.5 L 33.93 56.85 C 33.83 57.02 33.78 57.21 33.78 57.4 L 33.78 77.6 C 29.36 77.14999999999999 25.73 75.58 23 72.89999999999999 C 22.81 72.71999999999998 22.63 72.53999999999999 22.44 72.35999999999999 C 22.53 72.20999999999998 22.580000000000002 72.02999999999999 22.580000000000002 71.83999999999999 L 22.580000000000002 55.5 L 34.75 55.5 z M 20.44 53.36 L 13.64 53.36 L 13.64 38.25 L 20.44 38.25 L 20.44 53.36 z M 10.49 36.12 L 10.49 32.07 L 23.6 32.07 L 23.6 36.12 L 10.49 36.12 z M 23.6 26.2 L 23.6 29.93 L 10.49 29.93 L 10.49 26.2 C 10.49 23.7 12.52 21.66 15.030000000000001 21.66 L 19.07 21.66 C 21.56 21.67 23.6 23.7 23.6 26.2 z M 63.47 14.97 L 70.63 14.97 L 70.63 22.44 L 63.47 22.44 L 63.47 14.97 z M 97.87 93.17 C 97.87 94.38 96.88000000000001 95.37 95.67 95.37 L 55.05 95.37 C 53.839999999999996 95.37 52.849999999999994 94.38000000000001 52.849999999999994 93.17 L 52.849999999999994 28.32 C 52.849999999999994 26.26 54.529999999999994 24.58 56.589999999999996 24.58 L 62.4 24.58 L 71.69 24.58 L 94.12 24.58 C 96.18 24.58 97.86 26.259999999999998 97.86 28.32 L 97.86 93.17 z M 90.72 31.38 L 60 31.38 C 59.41 31.38 58.93 31.86 58.93 32.449999999999996 L 58.93 46.23 C 58.93 46.82 59.41 47.3 60 47.3 L 90.72 47.3 C 91.31 47.3 91.78999999999999 46.82 91.78999999999999 46.23 L 91.78999999999999 32.44 C 91.79 31.85 91.31 31.38 90.72 31.38 z M 89.65 45.16 L 61.07 45.16 L 61.07 33.51 L 89.65 33.51 L 89.65 45.16 z M 90.72 52.68 L 60 52.68 C 59.41 52.68 58.93 53.16 58.93 53.75 L 58.93 87.62 C 58.93 88.21000000000001 59.41 88.69 60 88.69 L 90.72 88.69 C 91.31 88.69 91.78999999999999 88.21 91.78999999999999 87.62 L 91.78999999999999 53.75 C 91.79 53.16 91.31 52.68 90.72 52.68 z M 89.65 86.55 L 61.07 86.55 L 61.07 54.81 L 89.65 54.81 L 89.65 86.55 z M 63.99 39.33 C 63.99 38.739999999999995 64.47 38.26 65.06 38.26 L 71.7 38.26 C 72.29 38.26 72.77 38.739999999999995 72.77 39.33 C 72.77 39.92 72.28999999999999 40.4 71.7 40.4 L 65.06 40.4 C 64.46 40.4 63.99 39.92 63.99 39.33 z M 74.29 39.33 C 74.29 38.739999999999995 74.77000000000001 38.26 75.36 38.26 L 86 38.26 C 86.59 38.26 87.07 38.739999999999995 87.07 39.33 C 87.07 39.92 86.59 40.4 86 40.4 L 75.36 40.4 C 74.77 40.4 74.29 39.92 74.29 39.33 z M 64.73 68.29 L 73.51 68.29 C 74.10000000000001 68.29 74.58 67.81 74.58 67.22000000000001 L 74.58 57.860000000000014 C 74.58 57.27000000000001 74.1 56.79000000000001 73.51 56.79000000000001 L 64.73 56.79000000000001 C 64.14 56.79000000000001 63.660000000000004 57.27000000000001 63.660000000000004 57.860000000000014 L 63.660000000000004 67.22000000000001 C 63.66 67.81 64.14 68.29 64.73 68.29 z M 65.79 58.92 L 72.44000000000001 58.92 L 72.44000000000001 66.15 L 65.79 66.15 L 65.79 58.92 z M 64.73 83.82 L 74.09 83.82 C 74.68 83.82 75.16 83.33999999999999 75.16 82.75 L 75.16 73.39 C 75.16 72.8 74.67999999999999 72.32000000000001 74.09 72.32000000000001 L 64.73 72.32000000000001 C 64.14 72.32000000000001 63.660000000000004 72.80000000000001 63.660000000000004 73.39 L 63.660000000000004 82.75 C 63.66 83.34 64.14 83.82 64.73 83.82 z M 65.79 74.46 L 73.02000000000001 74.46 L 73.02000000000001 81.69 L 65.79 81.69 L 65.79 74.46 z M 77.65 83.82 L 87.01 83.82 C 87.60000000000001 83.82 88.08 83.33999999999999 88.08 82.75 L 88.08 73.39 C 88.08 72.8 87.6 72.32000000000001 87.01 72.32000000000001 L 77.65 72.32000000000001 C 77.06 72.32000000000001 76.58000000000001 72.80000000000001 76.58000000000001 73.39 L 76.58000000000001 82.75 C 76.58 83.34 77.06 83.82 77.65 83.82 z M 78.71 74.46 L 85.94 74.46 L 85.94 81.69 L 78.71 81.69 L 78.71 74.46 z M 77.94 68.29 L 86.72 68.29 C 87.31 68.29 87.78999999999999 67.81 87.78999999999999 67.22000000000001 L 87.78999999999999 57.860000000000014 C 87.78999999999999 57.27000000000001 87.30999999999999 56.79000000000001 86.72 56.79000000000001 L 77.94 56.79000000000001 C 77.35 56.79000000000001 76.87 57.27000000000001 76.87 57.860000000000014 L 76.87 67.22000000000001 C 76.87 67.81 77.35 68.29 77.94 68.29 z M 79 58.92 L 85.65 58.92 L 85.65 66.15 L 79 66.15 L 79 58.92 z M 16.07 78.23 C 16.07 76.02000000000001 14.280000000000001 74.23 12.07 74.23 C 9.86 74.23 8.07 76.02000000000001 8.07 78.23 C 8.07 80.44 9.86 82.23 12.07 82.23 C 14.280000000000001 82.23 16.07 80.44 16.07 78.23 z M 10.2 78.23 C 10.2 77.2 11.04 76.36 12.07 76.36 C 13.100000000000001 76.36 13.940000000000001 77.2 13.940000000000001 78.23 C 13.940000000000001 79.26 13.100000000000001 80.10000000000001 12.07 80.10000000000001 C 11.04 80.10000000000001 10.2 79.27 10.2 78.23 z M 25.38 84.8 C 23.169999999999998 84.8 21.38 86.59 21.38 88.8 C 21.38 91.00999999999999 23.169999999999998 92.8 25.38 92.8 C 27.59 92.8 29.38 91.00999999999999 29.38 88.8 C 29.38 86.59 27.58 84.8 25.38 84.8 z M 25.38 90.67 C 24.349999999999998 90.67 23.509999999999998 89.83 23.509999999999998 88.8 C 23.509999999999998 87.77 24.349999999999998 86.92999999999999 25.38 86.92999999999999 C 26.41 86.92999999999999 27.25 87.77 27.25 88.8 C 27.24 89.83 26.41 90.67 25.38 90.67 z M 24.65 80.8 C 24.65 79.07 23.24 77.66 21.509999999999998 77.66 C 19.779999999999998 77.66 18.369999999999997 79.07 18.369999999999997 80.8 C 18.369999999999997 82.53 19.779999999999998 83.94 21.509999999999998 83.94 C 23.24 83.94 24.65 82.54 24.65 80.8 z M 20.5 80.8 C 20.5 80.24 20.95 79.78999999999999 21.51 79.78999999999999 C 22.07 79.78999999999999 22.520000000000003 80.24 22.520000000000003 80.8 C 22.520000000000003 81.36 22.070000000000004 81.81 21.51 81.81 C 20.95 81.81 20.5 81.36 20.5 80.8 z M 14.65 84.48 C 12.92 84.48 11.51 85.89 11.51 87.62 C 11.51 89.35000000000001 12.92 90.76 14.65 90.76 C 16.380000000000003 90.76 17.79 89.35000000000001 17.79 87.62 C 17.79 85.89 16.38 84.48 14.65 84.48 z M 14.65 88.63 C 14.09 88.63 13.64 88.17999999999999 13.64 87.61999999999999 C 13.64 87.05999999999999 14.09 86.60999999999999 14.65 86.60999999999999 C 15.21 86.60999999999999 15.66 87.05999999999999 15.66 87.61999999999999 C 15.66 88.17999999999999 15.21 88.63 14.65 88.63 z" stroke-linecap="round" />
</g>
</svg>