<?xml version="1.0" encoding="UTF-8" standalone="no" ?>
<!DOCTYPE svg PUBLIC "-//W3C//DTD SVG 1.1//EN" "http://www.w3.org/Graphics/SVG/1.1/DTD/svg11.dtd">
<svg xmlns="http://www.w3.org/2000/svg" xmlns:xlink="http://www.w3.org/1999/xlink" version="1.1" width="500" height="500" viewBox="0 0 500 500" xml:space="preserve">
<desc>Created with Fabric.js 5.3.0</desc>
<defs>
</defs>
<g transform="matrix(4.8723573449 0 0 4.8723573449 250 250)" id="VbQiDrR-JLSXWodoYqQGT"  >
<g style="" vector-effect="non-scaling-stroke"   >
		<g transform="matrix(1 0 0 1 -16.795 15.52)" id="wu3C4pE89Casm1o-EmGKH"  >
<path style="stroke: none; stroke-width: 1; stroke-dasharray: none; stroke-linecap: butt; stroke-dashoffset: 0; stroke-linejoin: miter; stroke-miterlimit: 4; fill: rgb(44,127,44); fill-rule: nonzero; opacity: 1;" vector-effect="non-scaling-stroke"  transform=" translate(-33.46, -65.52)" d="M 37.46 51.24 C 37.46 49.03 35.67 47.24 33.46 47.24 C 31.25 47.24 29.46 49.03 29.46 51.24 L 29.46 67.17 C 26.61 68.63 24.66 71.59 24.66 75 C 24.66 79.85 28.61 83.8 33.46 83.8 C 38.31 83.8 42.260000000000005 79.85 42.260000000000005 75 C 42.260000000000005 71.59 40.300000000000004 68.63 37.46000000000001 67.17 L 37.46000000000001 51.24 Z" stroke-linecap="round" />
</g>
		<g transform="matrix(1 0 0 1 0 0)" id="SVW_RM4K6r9-OT9mXewiL"  >
<path style="stroke: none; stroke-width: 1; stroke-dasharray: none; stroke-linecap: butt; stroke-dashoffset: 0; stroke-linejoin: miter; stroke-miterlimit: 4; fill: rgb(44,127,44); fill-rule: nonzero; opacity: 1;" vector-effect="non-scaling-stroke"  transform=" translate(-50.255, -50)" d="M 59.87 11.32 C 52.989999999999995 11.32 46.79 14.27 42.459999999999994 18.97 L 42.459999999999994 17.5 C 42.459999999999994 15.1 41.519999999999996 12.84 39.81999999999999 11.14 C 38.11999999999999 9.440000000000001 35.85999999999999 8.5 33.459999999999994 8.5 C 28.499999999999993 8.5 24.459999999999994 12.54 24.459999999999994 17.5 L 24.459999999999994 61.17 C 19.809999999999995 64.21000000000001 16.959999999999994 69.43 16.959999999999994 75 C 16.959999999999994 84.1 24.359999999999992 91.5 33.459999999999994 91.5 C 42.559999999999995 91.5 49.959999999999994 84.1 49.959999999999994 75 C 49.959999999999994 69.43 47.10999999999999 64.21000000000001 42.459999999999994 61.17 L 42.459999999999994 51.03 C 46.78999999999999 55.730000000000004 52.989999999999995 58.68 59.86999999999999 58.68 C 72.92999999999999 58.68 83.54999999999998 48.06 83.54999999999998 35 C 83.54999999999998 21.939999999999998 72.92999999999998 11.32 59.86999999999998 11.32 Z M 39.19 35 C 39.19 23.6 48.47 14.32 59.87 14.32 C 71.27 14.32 80.55 23.6 80.55 35 C 80.55 46.4 71.27 55.68 59.87 55.68 C 48.47 55.68 39.19 46.4 39.19 35 Z M 40.21 63.31 C 44.38 65.73 46.96 70.21000000000001 46.96 75 C 46.96 82.44 40.9 88.5 33.46 88.5 C 26.020000000000003 88.5 19.96 82.44 19.96 75 C 19.96 70.2 22.55 65.72 26.71 63.31 C 27.17 63.04 27.46 62.550000000000004 27.46 62.010000000000005 L 27.46 17.5 C 27.46 14.19 30.150000000000002 11.5 33.46 11.5 C 35.06 11.5 36.56 12.13 37.7 13.26 C 38.84 14.39 39.46 15.9 39.46 17.5 L 39.46 23.02 C 37.39 26.54 36.19 30.63 36.19 35 C 36.19 39.370000000000005 37.39 43.47 39.46 46.980000000000004 L 39.46 62.010000000000005 C 39.46 62.540000000000006 39.74 63.040000000000006 40.21 63.31 Z" stroke-linecap="round" />
</g>
		<g transform="matrix(1 0 0 1 9.6141192702 -14.99375)" id="QtH1Zq1LUt24xyTIYfGPm"  >
<path style="stroke: none; stroke-width: 1; stroke-dasharray: none; stroke-linecap: butt; stroke-dashoffset: 0; stroke-linejoin: miter; stroke-miterlimit: 4; fill: rgb(44,127,44); fill-rule: nonzero; opacity: 1;" vector-effect="non-scaling-stroke"  transform=" translate(-59.8691192702, -35.00625)" d="M 64.38 19.71 C 64.21 19.91 62.629999999999995 21.740000000000002 61.029999999999994 24.330000000000002 C 59.41 21.990000000000002 58.059999999999995 20.430000000000003 57.879999999999995 20.220000000000002 C 57.309999999999995 19.570000000000004 56.19 19.570000000000004 55.62 20.220000000000002 C 54.989999999999995 20.94 40.3 37.95 48.98 47.42 C 50.949999999999996 49.57 53.779999999999994 50.800000000000004 56.75 50.800000000000004 C 59.720000000000006 50.800000000000004 62.55 49.57000000000001 64.52 47.42 C 65.94 45.870000000000005 66.72 44.120000000000005 67.06 42.27 C 68.73 41.95 70.27 41.11000000000001 71.42 39.85 C 77.92 32.75 67.11 20.23 66.65 19.700000000000003 C 66.08000000000001 19.050000000000004 64.96000000000001 19.050000000000004 64.39 19.700000000000003 Z M 69.19999999999999 37.83 C 68.26999999999998 38.839999999999996 66.92999999999999 39.43 65.50999999999999 39.43 C 64.08999999999999 39.43 62.74999999999999 38.85 61.81999999999999 37.83 C 58.41 34.11 62.61999999999999 26.869999999999997 65.50999999999999 23.08 C 68.39999999999999 26.869999999999997 72.60999999999999 34.11 69.19999999999999 37.83 Z" stroke-linecap="round" />
</g>
</g>
</g>
</svg>