<?xml version="1.0" encoding="UTF-8" standalone="no" ?>
<!DOCTYPE svg PUBLIC "-//W3C//DTD SVG 1.1//EN" "http://www.w3.org/Graphics/SVG/1.1/DTD/svg11.dtd">
<svg xmlns="http://www.w3.org/2000/svg" xmlns:xlink="http://www.w3.org/1999/xlink" version="1.1" width="500" height="500" viewBox="0 0 500 500" xml:space="preserve">
<desc>Created with Fabric.js 5.3.0</desc>
<defs>
</defs>
<g transform="matrix(4.6629418396 0 0 4.6629418396 250 250)" id="q26DWCXZuqXSQZqXISdMw"  >
<g style="" vector-effect="non-scaling-stroke"   >
		<g transform="matrix(1 0 0 1 -24 13.4029166977)" id="NREXv_pDoBSjmy7SKrHPP"  >
<path style="stroke: none; stroke-width: 1; stroke-dasharray: none; stroke-linecap: butt; stroke-dashoffset: 0; stroke-linejoin: miter; stroke-miterlimit: 4; fill: rgb(44,127,44); fill-rule: nonzero; opacity: 1;" vector-effect="non-scaling-stroke"  transform=" translate(-26, -63.4029166977)" d="M 33.3 63.4 C 33.3 62 32.199999999999996 60.9 30.799999999999997 60.9 L 21.199999999999996 60.9 C 19.799999999999997 60.9 18.699999999999996 62 18.699999999999996 63.4 C 18.699999999999996 64.8 19.799999999999997 65.9 21.199999999999996 65.9 L 30.799999999999997 65.9 C 32.1 66 33.3 64.8 33.3 63.4 z" stroke-linecap="round" />
</g>
		<g transform="matrix(1 0 0 1 -17.7970833023 22.9)" id="k687IkXT54enDdaLxPLfj"  >
<path style="stroke: none; stroke-width: 1; stroke-dasharray: none; stroke-linecap: butt; stroke-dashoffset: 0; stroke-linejoin: miter; stroke-miterlimit: 4; fill: rgb(44,127,44); fill-rule: nonzero; opacity: 1;" vector-effect="non-scaling-stroke"  transform=" translate(-32.2029166977, -72.9)" d="M 37.6 70.4 L 26.8 70.4 C 25.400000000000002 70.4 24.3 71.5 24.3 72.9 C 24.3 74.30000000000001 25.400000000000002 75.4 26.8 75.4 L 37.6 75.4 C 39 75.4 40.1 74.30000000000001 40.1 72.9 C 40.2 71.6 39 70.4 37.6 70.4 z" stroke-linecap="round" />
</g>
		<g transform="matrix(1 0 0 1 -0.7 13.4029166977)" id="cLbQubwhiPkfUPpg5ZDD3"  >
<path style="stroke: none; stroke-width: 1; stroke-dasharray: none; stroke-linecap: butt; stroke-dashoffset: 0; stroke-linejoin: miter; stroke-miterlimit: 4; fill: rgb(44,127,44); fill-rule: nonzero; opacity: 1;" vector-effect="non-scaling-stroke"  transform=" translate(-49.3, -63.4029166977)" d="M 55.6 63.4 C 55.6 62 54.5 60.9 53.1 60.9 L 45.5 60.9 C 44.1 60.9 43 62 43 63.4 C 43 64.8 44.1 65.9 45.5 65.9 L 53 65.9 C 54.4 66 55.6 64.8 55.6 63.4 z" stroke-linecap="round" />
</g>
		<g transform="matrix(1 0 0 1 4.1529166977 22.9)" id="XGWkrsyhDAdNKlySSRuK5"  >
<path style="stroke: none; stroke-width: 1; stroke-dasharray: none; stroke-linecap: butt; stroke-dashoffset: 0; stroke-linejoin: miter; stroke-miterlimit: 4; fill: rgb(44,127,44); fill-rule: nonzero; opacity: 1;" vector-effect="non-scaling-stroke"  transform=" translate(-54.1529166977, -72.9)" d="M 58.3 70.4 L 50 70.4 C 48.6 70.4 47.5 71.5 47.5 72.9 C 47.5 74.30000000000001 48.6 75.4 50 75.4 L 58.3 75.4 C 59.699999999999996 75.4 60.8 74.30000000000001 60.8 72.9 C 60.9 71.6 59.7 70.4 58.3 70.4 z" stroke-linecap="round" />
</g>
		<g transform="matrix(1 0 0 1 20.6 13.4029166977)" id="P5uE3qkR5eRcyW0X57KW1"  >
<path style="stroke: none; stroke-width: 1; stroke-dasharray: none; stroke-linecap: butt; stroke-dashoffset: 0; stroke-linejoin: miter; stroke-miterlimit: 4; fill: rgb(44,127,44); fill-rule: nonzero; opacity: 1;" vector-effect="non-scaling-stroke"  transform=" translate(-70.6, -63.4029166977)" d="M 77.4 63.4 C 77.4 62 76.30000000000001 60.9 74.9 60.9 L 66.30000000000001 60.9 C 64.9 60.9 63.80000000000001 62 63.80000000000001 63.4 C 63.80000000000001 64.8 64.9 65.9 66.30000000000001 65.9 L 74.9 65.9 C 76.2 66 77.4 64.8 77.4 63.4 z" stroke-linecap="round" />
</g>
		<g transform="matrix(1 0 0 1 24.85 22.9)" id="B6f0oqoJpFJinPoQkEvI4"  >
<path style="stroke: none; stroke-width: 1; stroke-dasharray: none; stroke-linecap: butt; stroke-dashoffset: 0; stroke-linejoin: miter; stroke-miterlimit: 4; fill: rgb(44,127,44); fill-rule: nonzero; opacity: 1;" vector-effect="non-scaling-stroke"  transform=" translate(-74.85, -72.9)" d="M 78.9 70.4 L 70.80000000000001 70.4 C 69.4 70.4 68.30000000000001 71.5 68.30000000000001 72.9 C 68.30000000000001 74.30000000000001 69.4 75.4 70.80000000000001 75.4 L 78.9 75.4 C 80.30000000000001 75.4 81.4 74.30000000000001 81.4 72.9 C 81.4 71.6 80.3 70.4 78.9 70.4 z" stroke-linecap="round" />
</g>
		<g transform="matrix(1 0 0 1 -24.1 -5.6)" id="5sSr5pLhpR88MEdhqVdPv"  >
<path style="stroke: none; stroke-width: 1; stroke-dasharray: none; stroke-linecap: butt; stroke-dashoffset: 0; stroke-linejoin: miter; stroke-miterlimit: 4; fill: rgb(44,127,44); fill-rule: nonzero; opacity: 1;" vector-effect="non-scaling-stroke"  transform=" translate(-25.9, -44.4)" d="M 21.1 46.9 L 30.700000000000003 46.9 C 32.1 46.9 33.2 45.8 33.2 44.4 C 33.2 43 32.1 41.9 30.700000000000003 41.9 L 21.1 41.9 C 19.700000000000003 41.9 18.6 43 18.6 44.4 C 18.6 45.8 19.7 46.9 21.1 46.9 z" stroke-linecap="round" />
</g>
		<g transform="matrix(1 0 0 1 -17.8 3.9)" id="SBrCb_fC3KHPE9Zw4cdMg"  >
<path style="stroke: none; stroke-width: 1; stroke-dasharray: none; stroke-linecap: butt; stroke-dashoffset: 0; stroke-linejoin: miter; stroke-miterlimit: 4; fill: rgb(44,127,44); fill-rule: nonzero; opacity: 1;" vector-effect="non-scaling-stroke"  transform=" translate(-32.2, -53.9)" d="M 37.6 51.4 L 26.8 51.4 C 25.400000000000002 51.4 24.3 52.5 24.3 53.9 C 24.3 55.3 25.400000000000002 56.4 26.8 56.4 L 37.6 56.4 C 39 56.4 40.1 55.3 40.1 53.9 C 40.1 52.5 39 51.4 37.6 51.4 z" stroke-linecap="round" />
</g>
		<g transform="matrix(1 0 0 1 -0.8 -5.6)" id="rpKLzil0V1FS2g6pnaRPT"  >
<path style="stroke: none; stroke-width: 1; stroke-dasharray: none; stroke-linecap: butt; stroke-dashoffset: 0; stroke-linejoin: miter; stroke-miterlimit: 4; fill: rgb(44,127,44); fill-rule: nonzero; opacity: 1;" vector-effect="non-scaling-stroke"  transform=" translate(-49.2, -44.4)" d="M 45.4 46.9 L 53 46.9 C 54.4 46.9 55.5 45.8 55.5 44.4 C 55.5 43 54.4 41.9 53 41.9 L 45.4 41.9 C 44 41.9 42.9 43 42.9 44.4 C 42.9 45.8 44 46.9 45.4 46.9 z" stroke-linecap="round" />
</g>
		<g transform="matrix(1 0 0 1 4.15 3.9)" id="rgqUVzlGci8krEbA0Ctxw"  >
<path style="stroke: none; stroke-width: 1; stroke-dasharray: none; stroke-linecap: butt; stroke-dashoffset: 0; stroke-linejoin: miter; stroke-miterlimit: 4; fill: rgb(44,127,44); fill-rule: nonzero; opacity: 1;" vector-effect="non-scaling-stroke"  transform=" translate(-54.15, -53.9)" d="M 58.3 51.4 L 50 51.4 C 48.6 51.4 47.5 52.5 47.5 53.9 C 47.5 55.3 48.6 56.4 50 56.4 L 58.3 56.4 C 59.699999999999996 56.4 60.8 55.3 60.8 53.9 C 60.8 52.5 59.7 51.4 58.3 51.4 z" stroke-linecap="round" />
</g>
		<g transform="matrix(1 0 0 1 20.5 -5.6)" id="-nfKRP9vrf1ktqfizLSar"  >
<path style="stroke: none; stroke-width: 1; stroke-dasharray: none; stroke-linecap: butt; stroke-dashoffset: 0; stroke-linejoin: miter; stroke-miterlimit: 4; fill: rgb(44,127,44); fill-rule: nonzero; opacity: 1;" vector-effect="non-scaling-stroke"  transform=" translate(-70.5, -44.4)" d="M 66.2 46.9 L 74.8 46.9 C 76.2 46.9 77.3 45.8 77.3 44.4 C 77.3 43 76.2 41.9 74.8 41.9 L 66.2 41.9 C 64.8 41.9 63.7 43 63.7 44.4 C 63.7 45.8 64.8 46.9 66.2 46.9 z" stroke-linecap="round" />
</g>
		<g transform="matrix(1 0 0 1 24.85 3.9)" id="Euv8sZlhvkHtS5fCby9C1"  >
<path style="stroke: none; stroke-width: 1; stroke-dasharray: none; stroke-linecap: butt; stroke-dashoffset: 0; stroke-linejoin: miter; stroke-miterlimit: 4; fill: rgb(44,127,44); fill-rule: nonzero; opacity: 1;" vector-effect="non-scaling-stroke"  transform=" translate(-74.85, -53.9)" d="M 78.9 51.4 L 70.80000000000001 51.4 C 69.4 51.4 68.30000000000001 52.5 68.30000000000001 53.9 C 68.30000000000001 55.3 69.4 56.4 70.80000000000001 56.4 L 78.9 56.4 C 80.30000000000001 56.4 81.4 55.3 81.4 53.9 C 81.4 52.5 80.3 51.4 78.9 51.4 z" stroke-linecap="round" />
</g>
		<g transform="matrix(1 0 0 1 0 0)" id="f4RxNRFd2yRS56gRrU1ca"  >
<path style="stroke: none; stroke-width: 1; stroke-dasharray: none; stroke-linecap: butt; stroke-dashoffset: 0; stroke-linejoin: miter; stroke-miterlimit: 4; fill: rgb(44,127,44); fill-rule: nonzero; opacity: 1;" vector-effect="non-scaling-stroke"  transform=" translate(-50, -50)" d="M 94.2 9.8 L 5.8 9.8 C 4 9.8 2.5 11.3 2.5 13.100000000000001 L 2.5 86.9 C 2.5 88.7 4 90.2 5.8 90.2 L 94.2 90.2 C 96 90.2 97.5 88.7 97.5 86.9 L 97.5 13.1 C 97.5 11.3 96 9.8 94.2 9.8 z M 85.4 19.9 C 86.5 19.9 87.30000000000001 20.799999999999997 87.30000000000001 21.799999999999997 L 87.30000000000001 32.8 L 84.80000000000001 32.8 C 80.4 32.8 77.10000000000001 29.999999999999996 75.10000000000001 27.599999999999998 C 74.60000000000001 26.999999999999996 73.9 26.7 73.2 26.7 C 73.2 26.7 73.2 26.7 73.2 26.7 C 72.5 26.7 71.7 27 71.3 27.599999999999998 C 69.3 29.999999999999996 66 32.8 61.599999999999994 32.8 C 57.199999999999996 32.8 53.89999999999999 29.999999999999996 51.89999999999999 27.599999999999998 C 50.89999999999999 26.4 48.99999999999999 26.4 47.99999999999999 27.599999999999998 C 45.99999999999999 29.999999999999996 42.699999999999996 32.8 38.3 32.8 C 33.9 32.8 30.599999999999998 29.999999999999996 28.599999999999998 27.599999999999998 C 27.599999999999998 26.4 25.7 26.4 24.7 27.599999999999998 C 22.7 29.999999999999996 19.4 32.8 15 32.8 L 12.5 32.8 L 12.5 21.799999999999997 C 12.5 20.699999999999996 13.4 19.9 14.4 19.9 L 85.4 19.9 z M 80.8 80.1 L 19.2 80.1 C 15.6 80.1 12.6 77.1 12.6 73.5 L 12.6 37.9 L 15.1 37.9 C 19.2 37.9 23.299999999999997 36.199999999999996 26.7 33 C 30.099999999999998 36.2 34.2 37.9 38.3 37.9 C 42.39999999999999 37.9 46.6 36.2 50 33 C 53.4 36.2 57.5 37.9 61.6 37.9 C 65.8 37.9 69.8 36.199999999999996 73.2 33 C 76.60000000000001 36.2 80.7 37.9 84.8 37.9 L 87.3 37.9 L 87.3 73.5 C 87.3 77.1 84.4 80.1 80.8 80.1 z" stroke-linecap="round" />
</g>
</g>
</g>
</svg>